<?xml version="1.0" encoding="utf-8"?>
<!-- Generator: Adobe Illustrator 16.0.0, SVG Export Plug-In . SVG Version: 6.00 Build 0)  -->
<!DOCTYPE svg PUBLIC "-//W3C//DTD SVG 1.1//EN" "http://www.w3.org/Graphics/SVG/1.1/DTD/svg11.dtd">
<svg version="1.1" id="Layer_1" xmlns="http://www.w3.org/2000/svg" xmlns:xlink="http://www.w3.org/1999/xlink" x="0px" y="0px"
	 width="320px" height="107px" viewBox="0 0 320 107" enable-background="new 0 0 320 107" xml:space="preserve">
<g>
	<defs>
		<rect id="SVGID_1_" x="-57.301" y="-147.232" width="405.955" height="406.004"/>
	</defs>
	<clipPath id="SVGID_2_">
		<use xlink:href="#SVGID_1_"  overflow="visible"/>
	</clipPath>
	<path clip-path="url(#SVGID_2_)" fill="#00E5B9" d="M309.031,8.983h-8.246c-0.994,0-1.932,0.386-2.635,1.088l-14.822,14.762
		l-14.824-14.762c-0.703-0.702-1.639-1.088-2.633-1.088h-6.826c-2.395,0-4.342,1.948-4.342,4.342v41.891
		c0,2.398,1.947,4.346,4.342,4.346h8.061c2.395,0,4.344-1.947,4.344-4.346V38.829l11.879-11.88l11.879,11.88v16.388
		c0,2.398,1.949,4.346,4.342,4.346h9.482c2.393,0,4.342-1.947,4.342-4.346V13.326C313.373,10.932,311.424,8.983,309.031,8.983"/>
	<path clip-path="url(#SVGID_2_)" fill="#272739" d="M88.638,37.109c3.337,3.528,5.006,8.282,5.006,14.265v32.219H76.829V56.195
		c0-2.898-0.757-5.182-2.269-6.851c-1.511-1.668-3.558-2.504-6.14-2.504c-2.96,0.064-5.306,1.15-7.038,3.26
		c-1.733,2.11-2.599,4.865-2.599,8.271v25.224H41.968V56.195c0-2.898-0.757-5.182-2.268-6.851c-1.512-1.668-3.559-2.504-6.14-2.504
		c-2.961,0.064-5.323,1.15-7.087,3.26c-1.764,2.11-2.644,4.865-2.644,8.271v25.224H7.107V32.48h16.722v8.407
		c1.762-2.959,4.045-5.21,6.849-6.754c2.801-1.543,6.061-2.315,9.778-2.315c4.156,0,7.715,1.008,10.675,3.023
		c2.959,2.017,5.07,4.818,6.33,8.409c1.637-3.78,3.982-6.629,7.038-8.551c3.054-1.919,6.66-2.881,10.818-2.881
		C80.858,31.818,85.298,33.583,88.638,37.109"/>
	<path clip-path="url(#SVGID_2_)" fill="#272739" d="M141.354,35.173c4.219,2.173,7.494,5.229,9.825,9.164
		c2.33,3.936,3.494,8.487,3.494,13.655c0,5.229-1.164,9.811-3.494,13.745c-2.331,3.938-5.606,6.992-9.825,9.165
		c-4.22,2.172-9.102,3.259-14.643,3.259c-5.544,0-10.425-1.087-14.645-3.259c-4.22-2.173-7.478-5.228-9.777-9.165
		c-2.3-3.935-3.449-8.517-3.449-13.745c0-5.168,1.149-9.719,3.449-13.655c2.299-3.935,5.557-6.991,9.777-9.164
		c4.22-2.173,9.101-3.259,14.645-3.259C132.252,31.914,137.134,33,141.354,35.173 M118.775,49.013
		c-2.016,2.331-3.023,5.385-3.023,9.169c0,3.842,1.007,6.929,3.023,9.258c2.014,2.331,4.66,3.496,7.936,3.496
		c3.337,0,6.013-1.165,8.029-3.496c2.015-2.329,3.024-5.416,3.024-9.258c0-3.784-1.026-6.838-3.07-9.169
		c-2.049-2.329-4.709-3.496-7.983-3.496C123.436,45.517,120.79,46.684,118.775,49.013"/>
	<path clip-path="url(#SVGID_2_)" fill="#272739" d="M212.545,32.48V79.06c0,4.724-1.163,8.864-3.479,12.424
		c-2.32,3.557-5.565,6.297-9.749,8.219c-4.189,1.92-9.021,2.882-14.502,2.882c-4.284,0-8.408-0.6-12.375-1.795
		c-3.968-1.197-7.464-2.804-10.487-4.819l5.857-11.62c2.329,1.574,4.85,2.803,7.559,3.686c2.706,0.881,5.447,1.322,8.218,1.322
		c3.78,0,6.77-0.883,8.977-2.646c2.203-1.764,3.305-4.157,3.305-7.18v-5.479c-3.4,4.473-8.25,6.708-14.547,6.708
		c-4.221,0-7.983-1.023-11.291-3.07c-3.306-2.047-5.889-4.944-7.746-8.691c-1.859-3.747-2.788-8.045-2.788-12.899
		c0-4.787,0.898-9.007,2.693-12.66c1.796-3.653,4.329-6.486,7.604-8.503c3.274-2.015,6.991-3.023,11.149-3.023
		c3.149,0,6,0.583,8.55,1.748c2.549,1.165,4.676,2.85,6.375,5.054V32.48H212.545z M193.034,65.172
		c1.889-2.204,2.834-5.069,2.834-8.597c0-3.594-0.945-6.49-2.834-8.695c-1.889-2.204-4.377-3.307-7.463-3.307
		c-3.086,0-5.59,1.119-7.51,3.354c-1.921,2.237-2.882,5.118-2.882,8.648c0,3.528,0.961,6.393,2.882,8.597
		c1.92,2.206,4.424,3.307,7.51,3.307C188.657,68.479,191.145,67.378,193.034,65.172"/>
	<path clip-path="url(#SVGID_2_)" fill="#272739" d="M233.494,11.46c1.666,1.67,2.502,3.826,2.502,6.471
		c0,2.584-0.836,4.724-2.502,6.425c-1.672,1.7-3.797,2.55-6.379,2.55c-2.584,0-4.709-0.85-6.375-2.55
		c-1.672-1.701-2.506-3.841-2.506-6.425c0-2.645,0.834-4.801,2.506-6.471c1.666-1.668,3.791-2.503,6.375-2.503
		C229.697,8.957,231.822,9.792,233.494,11.46 M218.896,32.48h16.723v51.114h-16.723V32.48z"/>
</g>
</svg>
